<svg xmlns="http://www.w3.org/2000/svg" width="1250" viewBox="0 0 937.5 311.25" height="415" preserveAspectRatio="xMidYMid meet" version="1.0">
<defs>
<clipPath id="9db541633c"><path d="M 277 0 L 935.34375 0 L 935.34375 310.5 L 277 310.5 Z M 277 0 " clip-rule="nonzero"/></clipPath>
<clipPath id="d04332ddba"><rect x="0" width="659" y="0" height="311"/></clipPath>
</defs>
<path fill="#ffffff" d="M 224.472656 76.011719 C 224.464844 76.214844 224.386719 76.390625 224.238281 76.53125 C 224.089844 76.671875 223.914062 76.742188 223.710938 76.742188 C 155.808594 76.78125 119.136719 76.796875 113.695312 76.792969 C 96.867188 76.785156 80.472656 82.980469 67.480469 93.46875 C 51.414062 106.4375 40.785156 124.726562 37.773438 145.140625 C 37.273438 148.539062 37.027344 154.148438 37.027344 161.96875 C 37.054688 222.769531 37.0625 256.09375 37.050781 261.941406 C 37.050781 262.027344 37.019531 262.097656 36.957031 262.160156 C 36.894531 262.21875 36.824219 262.246094 36.738281 262.246094 C 33.640625 262.195312 31.527344 262.167969 30.402344 262.167969 C 25.320312 262.175781 19.605469 260.152344 15.609375 256.90625 C 10.351562 252.636719 7.519531 246.816406 7.117188 239.445312 C 7.011719 237.578125 6.960938 234.179688 6.964844 229.257812 C 6.984375 209.371094 6.984375 159.644531 6.976562 80.078125 C 6.976562 74.199219 6.734375 69.027344 8.179688 64.53125 C 10.570312 57.078125 16.785156 51.085938 24.425781 49.269531 C 26.746094 48.714844 28.863281 48.433594 31.589844 48.449219 C 91.738281 48.691406 146.378906 48.730469 195.511719 48.570312 C 201.484375 48.554688 205.386719 48.78125 207.226562 49.253906 C 215.539062 51.414062 222.917969 58.851562 224.074219 67.609375 C 224.445312 70.46875 224.578125 73.269531 224.472656 76.011719 Z M 224.472656 76.011719 " fill-opacity="1" fill-rule="nonzero"/>
<path fill="#ffffff" d="M 162.671875 154.109375 C 162.671875 155.644531 162.597656 157.171875 162.445312 158.699219 C 162.296875 160.226562 162.070312 161.742188 161.773438 163.246094 C 161.472656 164.75 161.101562 166.234375 160.65625 167.703125 C 160.210938 169.171875 159.695312 170.613281 159.109375 172.027344 C 158.519531 173.445312 157.867188 174.832031 157.144531 176.183594 C 156.421875 177.535156 155.632812 178.851562 154.78125 180.125 C 153.929688 181.398438 153.015625 182.628906 152.042969 183.816406 C 151.070312 185 150.042969 186.136719 148.957031 187.21875 C 147.875 188.304688 146.738281 189.332031 145.554688 190.304688 C 144.367188 191.28125 143.136719 192.191406 141.863281 193.042969 C 140.585938 193.894531 139.273438 194.683594 137.921875 195.40625 C 136.566406 196.128906 135.183594 196.785156 133.765625 197.371094 C 132.351562 197.957031 130.90625 198.472656 129.441406 198.917969 C 127.972656 199.363281 126.488281 199.738281 124.984375 200.035156 C 123.476562 200.335938 121.964844 200.558594 120.4375 200.710938 C 118.910156 200.859375 117.382812 200.933594 115.847656 200.933594 C 114.3125 200.933594 112.785156 200.859375 111.257812 200.710938 C 109.730469 200.558594 108.214844 200.335938 106.710938 200.035156 C 105.207031 199.738281 103.722656 199.363281 102.253906 198.917969 C 100.785156 198.472656 99.34375 197.957031 97.929688 197.371094 C 96.511719 196.785156 95.125 196.128906 93.773438 195.40625 C 92.421875 194.683594 91.109375 193.894531 89.832031 193.042969 C 88.558594 192.191406 87.328125 191.28125 86.140625 190.304688 C 84.957031 189.332031 83.820312 188.304688 82.738281 187.21875 C 81.652344 186.136719 80.625 185 79.652344 183.816406 C 78.679688 182.628906 77.765625 181.398438 76.914062 180.125 C 76.0625 178.851562 75.273438 177.535156 74.550781 176.183594 C 73.828125 174.832031 73.171875 173.445312 72.585938 172.027344 C 72 170.613281 71.484375 169.171875 71.039062 167.703125 C 70.59375 166.234375 70.222656 164.75 69.921875 163.246094 C 69.621094 161.742188 69.398438 160.226562 69.246094 158.699219 C 69.097656 157.171875 69.023438 155.644531 69.023438 154.109375 C 69.023438 152.578125 69.097656 151.046875 69.246094 149.519531 C 69.398438 147.992188 69.621094 146.480469 69.921875 144.976562 C 70.222656 143.46875 70.59375 141.984375 71.039062 140.515625 C 71.484375 139.050781 72 137.609375 72.585938 136.191406 C 73.171875 134.773438 73.828125 133.390625 74.550781 132.035156 C 75.273438 130.683594 76.0625 129.371094 76.914062 128.09375 C 77.765625 126.820312 78.679688 125.589844 79.652344 124.402344 C 80.625 123.21875 81.652344 122.082031 82.738281 121 C 83.820312 119.914062 84.957031 118.886719 86.140625 117.914062 C 87.328125 116.941406 88.558594 116.027344 89.832031 115.175781 C 91.109375 114.324219 92.421875 113.535156 93.773438 112.8125 C 95.125 112.089844 96.511719 111.4375 97.929688 110.847656 C 99.34375 110.261719 100.785156 109.746094 102.253906 109.300781 C 103.722656 108.855469 105.207031 108.484375 106.710938 108.183594 C 108.214844 107.886719 109.730469 107.660156 111.257812 107.511719 C 112.785156 107.359375 114.3125 107.285156 115.847656 107.285156 C 117.382812 107.285156 118.910156 107.359375 120.4375 107.511719 C 121.964844 107.660156 123.476562 107.886719 124.984375 108.183594 C 126.488281 108.484375 127.972656 108.855469 129.441406 109.300781 C 130.90625 109.746094 132.351562 110.261719 133.765625 110.847656 C 135.183594 111.4375 136.566406 112.089844 137.921875 112.8125 C 139.273438 113.535156 140.585938 114.324219 141.863281 115.175781 C 143.136719 116.027344 144.367188 116.941406 145.554688 117.914062 C 146.738281 118.886719 147.875 119.914062 148.957031 121 C 150.042969 122.082031 151.070312 123.21875 152.042969 124.402344 C 153.015625 125.589844 153.929688 126.820312 154.78125 128.09375 C 155.632812 129.371094 156.421875 130.683594 157.144531 132.035156 C 157.867188 133.390625 158.519531 134.773438 159.109375 136.191406 C 159.695312 137.609375 160.210938 139.050781 160.65625 140.515625 C 161.101562 141.984375 161.472656 143.46875 161.773438 144.976562 C 162.070312 146.480469 162.296875 147.992188 162.445312 149.519531 C 162.597656 151.046875 162.671875 152.578125 162.671875 154.109375 Z M 162.671875 154.109375 " fill-opacity="1" fill-rule="nonzero"/>
<path fill="#ffffff" d="M 68.039062 215.648438 C 68.035156 215.53125 68.082031 215.445312 68.1875 215.394531 C 68.292969 215.34375 68.386719 215.355469 68.476562 215.429688 C 75.082031 220.953125 82.492188 225.414062 90.703125 228.8125 C 100.277344 232.769531 110.234375 234.671875 120.574219 234.515625 C 127.609375 234.410156 134.542969 233.347656 141.371094 231.324219 C 164.792969 224.386719 183.011719 208.40625 192.972656 186.074219 C 197.289062 176.394531 199.785156 166.722656 200.457031 157.0625 C 200.835938 151.550781 200.785156 144.359375 200.054688 138.605469 C 198.710938 128.097656 195.578125 118.054688 190.648438 108.484375 C 190.621094 108.429688 190.609375 108.371094 190.609375 108.308594 C 190.613281 108.246094 190.628906 108.1875 190.664062 108.136719 C 190.695312 108.082031 190.738281 108.042969 190.792969 108.011719 C 190.847656 107.980469 190.90625 107.964844 190.964844 107.964844 L 223.847656 107.964844 C 224.019531 107.964844 224.167969 108.027344 224.292969 108.148438 C 224.414062 108.273438 224.476562 108.421875 224.476562 108.59375 C 224.507812 156.164062 224.507812 199.871094 224.476562 239.710938 C 224.476562 241.320312 224.222656 243.132812 223.71875 245.144531 C 221.714844 253.207031 215.511719 258.972656 207.523438 261.367188 C 205.328125 262.023438 202.945312 262.214844 200.492188 262.210938 C 150.335938 262.179688 106.414062 262.175781 68.722656 262.195312 C 68.527344 262.195312 68.390625 262.101562 68.316406 261.917969 C 68.15625 261.511719 68.074219 260.957031 68.070312 260.253906 C 68.023438 246.585938 68.054688 233.105469 68.171875 219.808594 C 68.171875 219.300781 68.128906 217.914062 68.039062 215.648438 Z M 68.039062 215.648438 " fill-opacity="1" fill-rule="nonzero"/>
<g clip-path="url(#9db541633c)">
<g transform="matrix(1, 0, 0, 1, 277, 0)">
<g clip-path="url(#d04332ddba)">
<g fill="#ffffff" fill-opacity="1">
<g transform="translate(0.33944, 254.815979)">
<path d="M 25.703125 0 L 25.703125 -113.59375 L 5.84375 -113.59375 L 5.84375 -144.84375 L 25.703125 -144.84375 L 25.703125 -161.78125 C 25.703125 -179.300781 30.128906 -191.757812 38.984375 -199.15625 C 47.847656 -206.5625 59.867188 -210.265625 75.046875 -210.265625 L 91.109375 -210.265625 L 91.109375 -178.4375 L 80.890625 -178.4375 C 74.460938 -178.4375 69.882812 -177.171875 67.15625 -174.640625 C 64.4375 -172.109375 63.078125 -167.820312 63.078125 -161.78125 L 63.078125 -144.84375 L 94.328125 -144.84375 L 94.328125 -113.59375 L 63.078125 -113.59375 L 63.078125 0 Z M 25.703125 0 "/>
</g>
<g transform="translate(94.666097, 254.815979)">
<path d="M 88.484375 3.5 C 74.460938 3.5 61.851562 0.289062 50.65625 -6.125 C 39.46875 -12.550781 30.613281 -21.457031 24.09375 -32.84375 C 17.570312 -44.238281 14.3125 -57.429688 14.3125 -72.421875 C 14.3125 -87.410156 17.617188 -100.597656 24.234375 -111.984375 C 30.859375 -123.378906 39.765625 -132.289062 50.953125 -138.71875 C 62.148438 -145.144531 74.757812 -148.359375 88.78125 -148.359375 C 102.601562 -148.359375 115.109375 -145.144531 126.296875 -138.71875 C 137.492188 -132.289062 146.351562 -123.378906 152.875 -111.984375 C 159.394531 -100.597656 162.65625 -87.410156 162.65625 -72.421875 C 162.65625 -57.429688 159.394531 -44.238281 152.875 -32.84375 C 146.351562 -21.457031 137.445312 -12.550781 126.15625 -6.125 C 114.863281 0.289062 102.304688 3.5 88.484375 3.5 Z M 88.484375 -28.90625 C 98.222656 -28.90625 106.691406 -32.554688 113.890625 -39.859375 C 121.097656 -47.160156 124.703125 -58.015625 124.703125 -72.421875 C 124.703125 -86.828125 121.097656 -97.679688 113.890625 -104.984375 C 106.691406 -112.285156 98.320312 -115.9375 88.78125 -115.9375 C 78.851562 -115.9375 70.332031 -112.285156 63.21875 -104.984375 C 56.113281 -97.679688 52.5625 -86.828125 52.5625 -72.421875 C 52.5625 -58.015625 56.113281 -47.160156 63.21875 -39.859375 C 70.332031 -32.554688 78.753906 -28.90625 88.484375 -28.90625 Z M 88.484375 -28.90625 "/>
</g>
<g transform="translate(266.965572, 254.815979)">
<path d="M 18.984375 0 L 18.984375 -210.265625 L 56.359375 -210.265625 L 56.359375 -86.15625 L 107.765625 -144.84375 L 152.140625 -144.84375 L 92.859375 -78.84375 L 161.78125 0 L 115.0625 0 L 56.359375 -72.71875 L 56.359375 0 Z M 18.984375 0 "/>
</g>
<g transform="translate(423.203256, 254.815979)">
<path d="M 68.921875 3.5 C 56.460938 3.5 46.238281 1.503906 38.25 -2.484375 C 30.269531 -6.472656 24.332031 -11.773438 20.4375 -18.390625 C 16.550781 -25.015625 14.609375 -32.316406 14.609375 -40.296875 C 14.609375 -53.734375 19.863281 -64.632812 30.375 -73 C 40.882812 -81.375 56.65625 -85.5625 77.6875 -85.5625 L 114.46875 -85.5625 L 114.46875 -89.0625 C 114.46875 -99 111.644531 -106.300781 106 -110.96875 C 100.351562 -115.644531 93.347656 -117.984375 84.984375 -117.984375 C 77.390625 -117.984375 70.769531 -116.179688 65.125 -112.578125 C 59.476562 -108.972656 55.972656 -103.664062 54.609375 -96.65625 L 18.109375 -96.65625 C 19.078125 -107.175781 22.628906 -116.328125 28.765625 -124.109375 C 34.898438 -131.898438 42.832031 -137.890625 52.5625 -142.078125 C 62.300781 -146.265625 73.203125 -148.359375 85.265625 -148.359375 C 105.910156 -148.359375 122.171875 -143.195312 134.046875 -132.875 C 145.921875 -122.550781 151.859375 -107.945312 151.859375 -89.0625 L 151.859375 0 L 120.03125 0 L 116.515625 -23.359375 C 112.234375 -15.578125 106.25 -9.15625 98.5625 -4.09375 C 90.875 0.96875 80.992188 3.5 68.921875 3.5 Z M 77.390625 -25.703125 C 88.097656 -25.703125 96.421875 -29.203125 102.359375 -36.203125 C 108.296875 -43.210938 112.039062 -51.878906 113.59375 -62.203125 L 81.765625 -62.203125 C 71.835938 -62.203125 64.734375 -60.398438 60.453125 -56.796875 C 56.171875 -53.191406 54.03125 -48.765625 54.03125 -43.515625 C 54.03125 -37.867188 56.171875 -33.488281 60.453125 -30.375 C 64.734375 -27.257812 70.378906 -25.703125 77.390625 -25.703125 Z M 77.390625 -25.703125 "/>
</g>
<g transform="translate(587.03372, 254.815979)">
<path d="M 18.984375 0 L 18.984375 -210.265625 L 56.359375 -210.265625 L 56.359375 0 Z M 18.984375 0 "/>
</g>
</g>
</g>
</g>
</g>
</svg>
