<?xml version="1.0" encoding="UTF-8" standalone="no"?>
<!DOCTYPE svg PUBLIC "-//W3C//DTD SVG 1.1//EN" "http://www.w3.org/Graphics/SVG/1.1/DTD/svg11.dtd">
<svg xmlns="http://www.w3.org/2000/svg" version="1.1" viewBox="0.00 0.00 500.00 500.00">
<path fill="#ffffff" d="
  M 142.92 412.86
  A 1.03 1.03 0.0 0 1 141.89 413.88
  Q 108.31 413.90 87.17 413.92
  Q 84.23 413.93 84.23 411.26
  Q 84.16 294.77 84.21 256.49
  C 84.31 172.83 143.91 95.82 226.42 79.16
  C 242.51 75.92 257.39 76.16 277.00 76.21
  Q 343.41 76.39 434.00 76.18
  Q 434.49 76.18 436.37 76.37
  A 1.65 1.64 2.9 0 1 437.85 78.00
  L 437.85 132.76
  A 1.06 1.06 0.0 0 1 437.00 133.80
  Q 435.25 134.16 432.00 134.16
  Q 408.05 134.15 265.07 134.09
  Q 249.81 134.08 241.99 135.41
  Q 213.62 140.22 190.14 158.12
  C 165.77 176.69 148.70 206.25 144.13 236.48
  Q 142.86 244.86 142.89 267.08
  Q 143.03 391.96 142.92 412.86
  Z"
/>
<path fill="#ffffff" d="
  M 170.44 339.45
  Q 171.57 340.32 172.08 340.95
  Q 182.87 354.10 193.75 362.25
  C 219.51 381.55 249.44 390.13 281.61 387.07
  Q 313.69 384.01 339.80 366.57
  C 373.87 343.81 394.34 304.46 397.78 263.53
  Q 398.07 260.05 397.96 248.77
  Q 397.88 240.11 397.30 234.05
  Q 394.43 203.86 380.56 176.39
  Q 377.26 169.88 376.20 167.66
  A 0.57 0.57 0.0 0 1 376.71 166.84
  Q 422.91 166.83 433.72 166.86
  C 435.70 166.86 437.86 166.43 437.86 169.25
  Q 437.78 329.11 437.91 377.34
  Q 437.94 388.13 436.44 393.03
  C 432.22 406.80 420.23 413.93 405.75 413.93
  Q 192.43 413.84 173.50 413.94
  Q 171.91 413.94 171.54 413.86
  A 1.95 1.95 0.0 0 1 169.98 411.95
  L 169.91 339.72
  A 0.33 0.33 0.0 0 1 170.44 339.45
  Z"
/>
<ellipse fill="#ffffff" cx="0.00" cy="0.00" transform="translate(266.71,257.20) rotate(-82.5)" rx="73.88" ry="73.65"/>
</svg>
