<?xml version="1.0" encoding="UTF-8" standalone="no"?>
<!DOCTYPE svg PUBLIC "-//W3C//DTD SVG 1.1//EN" "http://www.w3.org/Graphics/SVG/1.1/DTD/svg11.dtd">
<svg xmlns="http://www.w3.org/2000/svg" version="1.1" viewBox="0.00 0.00 333.00 180.00">
<path fill="#f9f9f9" d="
  M 325.58 14.62
  A 0.07 0.07 0.0 0 1 325.72 14.65
  L 323.84 67.91
  A 0.81 0.80 -89.2 0 1 323.05 68.69
  L 313.49 68.86
  A 0.77 0.77 0.0 0 1 312.72 67.91
  Q 320.26 36.34 324.37 18.62
  Q 324.89 16.37 325.58 14.62
  Z"
/>
<path fill="#f9f9f9" d="
  M 256.82 35.62
  L 297.76 34.89
  A 0.65 0.65 0.0 0 1 298.41 35.63
  L 296.02 52.71
  A 0.65 0.65 0.0 0 1 295.39 53.27
  L 272.91 53.67
  A 0.65 0.65 0.0 0 0 272.28 54.23
  L 267.78 86.27
  A 0.65 0.65 0.0 0 0 268.43 87.01
  L 285.43 86.70
  A 0.65 0.65 0.0 0 1 286.08 87.44
  L 283.57 105.34
  A 0.65 0.65 0.0 0 1 282.94 105.90
  L 265.53 106.21
  A 0.65 0.65 0.0 0 0 264.90 106.77
  L 259.93 142.18
  A 0.65 0.65 0.0 0 0 260.58 142.92
  L 283.66 142.50
  A 0.65 0.65 0.0 0 1 284.31 143.24
  L 281.80 161.18
  A 0.65 0.65 0.0 0 1 281.17 161.74
  L 239.19 162.50
  A 0.65 0.65 0.0 0 1 238.54 161.76
  L 256.19 36.18
  A 0.65 0.65 0.0 0 1 256.82 35.62
  Z"
/>
<path fill="#f9f9f9" d="
  M 203.99 110.11
  A 0.24 0.24 0.0 0 0 203.51 110.11
  L 196.16 162.38
  A 1.00 1.00 0.0 0 1 195.18 163.24
  L 178.07 163.55
  A 0.60 0.59 3.3 0 1 177.47 162.88
  L 195.13 37.29
  A 0.72 0.72 0.0 0 1 195.83 36.66
  L 213.12 36.35
  A 0.64 0.63 3.5 0 1 213.76 37.07
  L 207.22 83.59
  A 0.22 0.22 0.0 0 0 207.64 83.70
  L 227.60 36.69
  A 0.88 0.87 10.8 0 1 228.39 36.16
  L 245.78 35.85
  A 0.50 0.50 0.0 0 1 246.25 36.55
  Q 239.24 53.06 221.72 93.97
  C 220.88 95.94 221.37 98.16 221.69 100.38
  Q 228.13 144.54 230.59 162.12
  A 0.43 0.42 85.2 0 1 230.18 162.61
  L 212.02 162.93
  A 0.63 0.62 85.3 0 1 211.39 162.39
  L 203.99 110.11
  Z"
/>
<path fill="#f9f9f9" d="
  M 151.00 163.18
  L 151.23 145.61
  A 0.81 0.81 0.0 0 0 150.40 144.79
  L 137.67 145.02
  A 0.81 0.81 0.0 0 0 136.91 145.63
  L 132.20 163.76
  A 0.81 0.81 0.0 0 1 131.43 164.37
  L 116.22 164.64
  A 0.81 0.81 0.0 0 1 115.42 163.63
  L 147.95 38.16
  A 0.81 0.81 0.0 0 1 148.72 37.55
  L 169.46 37.18
  A 0.81 0.81 0.0 0 1 170.29 38.01
  L 168.65 162.91
  A 0.81 0.81 0.0 0 1 167.86 163.71
  L 151.83 164.00
  A 0.81 0.81 0.0 0 1 151.00 163.18
  Z"
/>
<path fill="#f9f9f9" d="
  M 132.75 56.30
  L 114.43 56.63
  A 0.76 0.76 0.0 0 0 113.69 57.28
  L 98.65 164.28
  A 0.76 0.76 0.0 0 1 97.91 164.93
  L 80.83 165.23
  A 0.76 0.76 0.0 0 1 80.06 164.37
  L 95.05 57.81
  A 0.76 0.76 0.0 0 0 94.28 56.95
  L 76.10 57.26
  A 0.76 0.76 0.0 0 1 75.33 56.40
  L 77.72 39.41
  A 0.76 0.76 0.0 0 1 78.46 38.76
  L 135.12 37.75
  A 0.76 0.76 0.0 0 1 135.89 38.61
  L 133.49 55.65
  A 0.76 0.76 0.0 0 1 132.75 56.30
  Z"
/>
<path fill="#f9f9f9" d="
  M 46.80 79.88
  A 0.63 0.63 0.0 0 1 46.17 79.16
  Q 48.46 63.12 48.50 62.75
  C 48.69 60.54 48.69 58.22 47.20 56.58
  C 44.64 53.76 40.23 55.33 38.99 58.79
  Q 35.01 69.84 40.68 80.57
  Q 47.48 93.44 53.42 105.35
  Q 58.26 115.06 59.21 124.99
  Q 59.52 128.20 58.62 135.16
  C 56.93 148.37 53.60 162.87 38.66 166.36
  C 31.45 168.04 19.99 168.28 13.77 163.89
  C 7.05 159.15 5.62 151.17 6.74 143.25
  Q 8.71 129.32 10.24 117.56
  A 0.61 0.61 0.0 0 1 10.83 117.03
  L 27.16 116.74
  A 1.40 1.40 0.0 0 1 28.57 118.33
  Q 25.78 138.64 25.42 142.48
  C 25.13 145.61 26.08 148.50 29.70 149.05
  C 34.71 149.81 36.75 145.88 37.86 141.40
  Q 39.18 136.06 39.54 130.74
  C 40.02 123.69 37.67 117.97 33.80 111.20
  Q 25.21 96.19 22.44 90.61
  Q 17.40 80.48 18.13 69.67
  C 18.76 60.38 20.43 48.80 28.31 42.53
  C 34.51 37.60 46.10 37.49 54.22 38.70
  C 64.65 40.24 68.46 48.11 67.22 57.75
  Q 66.43 63.88 64.32 79.07
  A 0.59 0.59 0.0 0 1 63.75 79.58
  L 46.80 79.88
  Z"
/>
</svg>
