<svg xmlns="http://www.w3.org/2000/svg" viewBox="0 0 930 320">
  <path style="fill:#E5E9F0" d="M.41 3.13h62.68c34.87 0 53.08 18.02 53.08 40.15 0 15.28-8.62 25.66-20.57 31.14v.39c15.28 5.48 23.9 17.63 23.9 33.1 0 22.13-17.04 41.53-53.86 41.53H.41V3.13Zm60.72 57.98c10.38 0 15.08-5.29 15.08-11.16s-4.7-11.36-15.08-11.36H42.72v22.52h18.41Zm.59 52.88c10.97 0 16.26-5.29 16.26-12.14S72.5 89.71 61.92 89.71H42.73V114h19Zm66.79-24.09V3.13h42.7v86.38c0 16.26 8.03 24.88 21.74 24.88s22.33-8.62 22.33-25.07V3.13h42.9V89.9c0 36.82-24.68 63.27-65.22 63.27s-64.44-26.44-64.44-63.27Zm238.36-79.71V47.8c-9.21-6.46-24.88-10.97-37.61-10.97-11.56 0-17.43 3.72-17.43 8.62s6.46 7.44 18.02 11.56c19.59 6.86 46.23 16.06 46.23 47.21 0 27.81-20.96 48.38-57.78 48.38-19 0-36.43-5.48-47.2-12.73V100.3c10.58 8.62 26.64 15.47 42.11 15.47 13.12 0 19.19-4.9 19.19-10.38 0-7.05-9.99-10.19-21.94-14.49-15.67-5.68-40.54-15.87-40.54-44.27 0-25.66 20.17-46.62 56.21-46.62 15.86 0 30.16 4.11 40.74 10.19Zm20.17-7.05h42.7v146.31h-42.7V3.13Zm194.5 146.31H540.8l-52.69-78.54h-.2v78.54h-40.54V3.13h40.74L540.8 80.3h.2V3.13h40.55v146.31ZM599.16 3.13h101.07v38h-58.37v17.63h52.49v34.47h-52.49v18.22h58.37v38H599.16V3.13Zm208.21 7.05v37.61c-9.21-6.46-24.88-10.97-37.61-10.97-11.56 0-17.43 3.72-17.43 8.62s6.46 7.44 18.02 11.56c19.59 6.86 46.23 16.06 46.23 47.21 0 27.81-20.96 48.38-57.78 48.38-19 0-36.43-5.48-47.2-12.73v-39.57c10.58 8.62 26.64 15.47 42.11 15.47 13.12 0 19.19-4.9 19.19-10.38 0-7.05-9.99-10.19-21.94-14.49-15.67-5.68-40.54-15.87-40.54-44.27C710.42 20.96 730.59 0 766.63 0c15.86 0 30.16 4.11 40.74 10.19Zm113.01 0v37.61c-9.21-6.46-24.88-10.97-37.61-10.97-11.56 0-17.43 3.72-17.43 8.62s6.46 7.44 18.02 11.56c19.59 6.86 46.23 16.06 46.23 47.21 0 27.81-20.96 48.38-57.78 48.38-19 0-36.43-5.48-47.2-12.73v-39.57c10.58 8.62 26.64 15.47 42.11 15.47 13.12 0 19.19-4.9 19.19-10.38 0-7.05-9.99-10.19-21.94-14.49-15.67-5.68-40.54-15.87-40.54-44.27C823.43 20.96 843.6 0 879.64 0c15.86 0 30.16 4.11 40.74 10.19ZM94.14 316.87h42.7V170.56h-42.7v146.31Zm194.5-146.31h-40.55v77.17h-.2l-52.69-77.17h-40.74v146.31H195v-78.54h.2l52.69 78.54h40.74V170.56Zm68.73-3.13c-36.04 0-56.21 20.96-56.21 46.62 0 28.4 24.88 38.59 40.54 44.27 11.95 4.31 21.94 7.44 21.94 14.49 0 5.48-6.07 10.38-19.19 10.38-15.47 0-31.54-6.86-42.11-15.47v39.57c10.77 7.25 28.21 12.73 47.2 12.73 36.82 0 57.78-20.57 57.78-48.38 0-31.14-26.64-40.35-46.23-47.2-11.56-4.11-18.02-6.46-18.02-11.56s5.88-8.62 17.43-8.62c12.73 0 28.4 4.51 37.61 10.97v-37.61c-10.58-6.07-24.88-10.19-40.74-10.19Zm59.91 149.45h42.7V170.57h-42.7v146.31Zm103.02-38.59h8.23c22.13 0 36.43-12.54 36.43-34.47s-14.3-34.67-36.43-34.67h-8.23v69.14Zm87.75-34.47c0 44.07-33.3 73.06-81.09 73.06H477.6V170.57h49.36c47.79 0 81.09 29.18 81.09 73.26Zm11.57 73.06h101.07v-38h-58.37v-18.22h52.49v-34.47h-52.49v-17.63h58.37v-38H619.62v146.31Zm168.27-77.17c10.77 0 19.2-5.09 19.2-15.28s-8.42-15.28-19.39-15.28h-9.01v30.56h9.21Zm69.93 77.17h-50.34l-27.81-45.25h-.98v45.25h-42.7V170.57h52.1c36.63 0 62.09 16.26 62.09 50.93 0 13.71-6.07 33.69-30.36 43.88l38 51.51Z"/>
</svg>
